HIERARCHY
ROOT Hips
{
  OFFSET 2.26061 22.2878 23.7974
  CHANNELS 6 Xposition Yposition Zposition Zrotation Xrotation Yrotation
  JOINT LeftUpLeg
  {
    OFFSET 8.64259 1.95398 -2.38835
    CHANNELS 3 Zrotation Xrotation Yrotation
    JOINT LeftLeg
    {
      OFFSET 43.7702 0 0
      CHANNELS 3 Zrotation Xrotation Yrotation
      JOINT LeftFoot
      {
        OFFSET 40.6238 0 0
        CHANNELS 3 Zrotation Xrotation Yrotation
        JOINT LeftToeBase
        {
          OFFSET 12.7242 0 0
          CHANNELS 3 Zrotation Xrotation Yrotation
          End Site
          {
            OFFSET 0 0 0
          }
        }
      }
    }
  }
  JOINT RightUpLeg
  {
    OFFSET -8.2249 1.95398 -2.59336
    CHANNELS 3 Zrotation Xrotation Yrotation
    JOINT RightLeg
    {
      OFFSET 43.5653 0 0
      CHANNELS 3 Zrotation Xrotation Yrotation
      JOINT RightFoot
      {
        OFFSET 40.6238 0 0
        CHANNELS 3 Zrotation Xrotation Yrotation
        JOINT RightToeBase
        {
          OFFSET 12.7242 0 0
          CHANNELS 3 Zrotation Xrotation Yrotation
          End Site
          {
            OFFSET 0 0 0
          }
        }
      }
    }
  }
  JOINT Spine
  {
    OFFSET 0.165834 0.87714 6.61349
    CHANNELS 3 Zrotation Xrotation Yrotation
    JOINT Spine1
    {
      OFFSET 7.38963 1.71661e-005 0
      CHANNELS 3 Zrotation Xrotation Yrotation
      JOINT Spine2
      {
        OFFSET 11.9445 1.14441e-005 0
        CHANNELS 3 Zrotation Xrotation Yrotation
        JOINT Spine3
        {
          OFFSET 14.7254 4.19617e-005 0
          CHANNELS 3 Zrotation Xrotation Yrotation
          JOINT Spine4
          {
            OFFSET 10.9679 0 0
            CHANNELS 3 Zrotation Xrotation Yrotation
            JOINT RightShoulder
            {
              OFFSET 2.46616 -1.6653 3.69651
              CHANNELS 3 Zrotation Xrotation Yrotation
              JOINT RightArm
              {
                OFFSET 13.0012 0 0
                CHANNELS 3 Zrotation Xrotation Yrotation
                JOINT RightForeArm
                {
                  OFFSET 28.7848 1.52588e-005 0
                  CHANNELS 3 Zrotation Xrotation Yrotation
                  JOINT RightHand
                  {
                    OFFSET 26.5688 1.52588e-005 0
                    CHANNELS 3 Zrotation Xrotation Yrotation
                    End Site
                    {
                      OFFSET 0 0 0
                    }
                  }
                }
              }
            }
            JOINT LeftShoulder
            {
              OFFSET 2.38034 -1.29275 -3.7523
              CHANNELS 3 Zrotation Xrotation Yrotation
              JOINT LeftArm
              {
                OFFSET 16.3182 6.10351e-005 0
                CHANNELS 3 Zrotation Xrotation Yrotation
                JOINT LeftForeArm
                {
                  OFFSET 27.0901 0 0
                  CHANNELS 3 Zrotation Xrotation Yrotation
                  JOINT LeftHand
                  {
                    OFFSET 24.5451 1.52588e-005 0
                    CHANNELS 3 Zrotation Xrotation Yrotation
                    End Site
                    {
                      OFFSET 0 0 0
                    }
                  }
                }
              }
            }
            JOINT Neck
            {
              OFFSET 5.0226 -0.0266342 0
              CHANNELS 3 Zrotation Xrotation Yrotation
              JOINT Head
              {
                OFFSET 6.69363 2.86102e-005 0
                CHANNELS 3 Zrotation Xrotation Yrotation
                End Site
                {
                  OFFSET 0 0 0
                }
              }
            }
          }
        }
      }
    }
  }
}
MOTION
Frames:	10
Frame Time:	0.0416667
-5.83949 93.174 6.00254 63.6281 -45.164 73.3783 -165.57 51.2373 87.5449 -35.2511 14.7118 -6.63355 51.4979 -6.23212 -2.99112 46.8692 16.5362 14.0911 177.714 6.89865 92.0365 -63.7385 3.88357 -3.99273 35.9852 3.8879 4.42047 21.9942 0.562234 -7.30762 1.45497 8.41555 -89.4748 10.0336 3.13857 0.784089 -1.63373 3.17005 0.645051 -24.1917 2.75773 1.6917 -4.17909 2.75774 1.69168 93.1902 -45.2832 -96.7857 28.0757 -18.0199 3.3759 -11.5054 -0.16103 -92.7821 -29.6514 0.444065 -6.50761 -98.4627 -50.9881 66.5771 -32.1186 4.78578 37.0424 3.73008 -1.70604 -80.7604 36.6299 1.12587 -0.935509 -11.6383 -3.59615 -4.36574 26.5633 -3.45792 0.0948666 
0.829756 92.0836 12.6334 68.1692 -45.1348 74.9084 -165.861 42.5279 85.9119 -38.5825 17.5047 -6.89071 60.5215 1.77184 5.56293 40.1906 9.09413 2.47962 176.733 15.0989 90.8752 -83.6894 9.28717 -2.57459 36.7008 1.72485 2.25178 21.4909 0.461531 -6.43182 0.928331 8.83243 -89.1986 9.1939 2.21039 1.42953 -2.47583 2.27116 1.33084 -25.0143 1.67862 2.02772 -5.00168 1.67864 2.02773 92.5907 -48.9781 -97.035 26.5585 -17.1369 8.11628 -16.3781 -9.75423 -84.294 -31.7979 -0.0865134 -3.91724 -100.641 -53.4297 64.3336 -26.5087 2.97504 29.9363 5.39012 -1.41566 -82.7404 37.3104 1.51352 0.0655028 -11.0082 -1.85813 -6.36727 26.8009 -1.1771 1.86616 
7.49728 90.3129 18.961 69.0881 -43.8279 73.6945 -166.026 38.1886 83.2221 -45.4624 10.7118 -6.46473 70.1602 10.0833 5.71652 37.9349 7.2148 0.953485 175.175 28.0235 90.1689 -100.255 10.9581 -1.97034 36.3634 -0.215039 0.363617 25.0424 0.334984 -5.32236 0.35556 8.84759 -88.9518 9.16421 1.1783 1.99177 -2.50763 1.2648 1.93799 -25.0318 0.525402 2.25369 -5.0192 0.525386 2.25368 92.8008 -50.7005 -96.3933 26.7758 -18.0767 14.1288 -12.8454 -12.5399 -74.5414 -32.6091 -0.417353 -2.80562 -102.374 -53.8114 62.0692 -22.3522 1.69282 22.3114 8.14092 -1.20111 -85.9408 37.313 2.12653 1.77242 -8.34614 -0.864597 -7.10703 24.3469 0.129956 2.61749 
13.8802 89.2504 25.1553 67.5793 -40.0965 71.422 -168.626 35.3309 80.9195 -47.9055 11.9008 -4.31015 71.3794 12.9834 9.55076 42.5738 10.9688 1.79634 172.612 43.7927 91.5307 -110.052 8.22807 -2.17192 35.1309 -0.351166 0.137019 28.7906 0.422964 -6.57166 -0.342594 8.61883 -88.8274 9.63192 -0.153388 2.33717 -2.04113 -0.0504151 2.34163 -24.5611 -0.848546 2.18315 -4.54851 -0.848554 2.18316 91.6301 -51.3106 -98.0593 28.3687 -18.2485 23.2191 -8.72301 -13.9735 -68.3299 -33.0736 -0.307315 -3.28165 -101.136 -51.0135 62.7522 -19.8345 3.24528 12.9859 8.90847 -1.91549 -89.7976 38.0006 2.57218 2.86386 -4.92035 -0.201509 -7.14274 21.7879 0.882789 2.40008 
21.1457 89.3716 31.5803 67.8002 -37.8504 71.9422 -171.536 28.1255 82.2863 -45.1085 16.8399 -2.93126 69.8343 13.1082 12.7099 47.8944 15.1431 1.32412 170.774 54.549 94.1126 -111.556 6.66292 -2.26104 38.0141 -0.0669448 0.331719 31.9653 0.434398 -7.49513 -0.766287 8.51855 -88.9646 9.84241 -1.05802 2.1384 -1.82992 -0.962889 2.18286 -24.3588 -1.65171 1.72172 -4.34611 -1.65169 1.72173 91.1489 -52.1594 -98.6157 29.0889 -18.7914 32.7941 -7.4797 -15.3222 -66.8882 -30.8408 -0.256927 -3.44394 -97.9785 -47.769 66.1666 -18.9249 3.26099 4.02207 9.50711 -2.63862 -95.2889 42.3343 2.04982 0.820878 -5.16373 0.507428 -7.29834 21.5701 1.76231 3.23838 
28.69 90.7405 38.2735 69.3943 -39.0914 74.2646 -172.451 17.9083 85.3852 -39.4743 18.656 -1.95422 66.606 9.6542 9.75876 49.9675 17.0812 2.84365 172.074 59.8843 96.0346 -106.016 3.91667 -2.07925 42.7391 0.521833 0.745383 31.3437 0.462991 -7.94959 -0.888389 8.50816 -89.1723 9.86526 -1.39524 1.75503 -1.80621 -1.31667 1.81471 -24.3418 -1.85815 1.25461 -4.32915 -1.85816 1.25461 91.9396 -52.8135 -97.3057 29.2956 -21.1141 41.0226 -7.91778 -16.3517 -67.8591 -26.9618 -0.171823 -3.75472 -95.0287 -45.1581 69.77 -20.4728 1.14542 0.751607 10.6317 -4.33952 -106.034 42.865 1.97255 0.58344 -7.78465 1.57644 -7.80664 21.613 3.13642 5.25824 
36.8802 92.9852 45.1535 69.885 -39.5627 76.876 -172.89 8.5109 90.2336 -30.2712 21.4012 -0.341708 56.5968 0.174404 0.460061 51.6157 19.673 8.19216 171.157 62.0534 98.6836 -94.0983 0.724943 -1.57139 44.6826 1.83561 1.85207 31.6606 0.5087 -9.33348 -1.10348 8.36905 -89.4873 10.1465 -1.96497 1.18407 -1.52359 -1.91094 1.26943 -24.0695 -2.22995 0.538574 -4.0569 -2.22995 0.538567 90.6659 -52.0717 -99.3554 31.8836 -22.3505 49.3627 -6.87323 -15.9591 -68.7108 -26.5097 -0.0851839 -4.19273 -92.3133 -43.1189 73.4181 -21.6296 0.435002 -0.598648 11.413 -6.95182 -115.889 39.1664 1.56321 -0.0156737 -11.381 3.17192 -7.47231 22.3071 4.87616 6.82537 
45.1676 94.9355 52.3087 71.3048 -38.6331 79.118 -172.627 -1.36745 92.308 -19.3539 24.9229 0.909109 39.2459 -10.5857 -8.98747 45.0196 14.1933 10.94 169.65 60.7616 99.0658 -78.5354 0.102791 -0.240451 44.9578 3.05134 2.94762 30.0091 0.546991 -9.05683 -1.44921 8.30871 -89.7903 10.2666 -2.79151 0.656189 -1.40161 -2.75991 0.778484 -23.9609 -2.85955 -0.213801 -3.9482 -2.85956 -0.213812 89.3472 -50.5191 -101.696 35.1264 -21.4902 56.5291 -6.81329 -14.7904 -70.1837 -25.3084 0.14958 -5.3223 -91.2262 -42.6834 75.0453 -21.7574 0.471037 -0.163346 10.2428 -8.96754 -125.482 36.1279 0.922573 -1.46941 -14.7755 4.37392 -5.62147 22.7202 5.96403 7.07162 
53.5171 96.5369 60.2332 71.3764 -37.5189 79.7351 -173.318 -4.71716 93.75 -22.8805 30.1245 2.62185 36.7583 -12.8509 -6.71518 33.0949 2.90061 11.808 170.644 57.8351 97.6076 -59.7467 -1.12445 1.24949 42.5634 4.36411 4.3006 26.2351 0.512934 -7.35592 -1.71132 8.16829 -90.01 10.5446 -3.41316 0.285152 -1.12195 -3.3973 0.435267 -23.692 -3.34089 -0.755007 -3.67938 -3.34087 -0.755 89.0948 -48.4657 -102.594 37.6051 -19.8836 60.6846 -8.59634 -13.7581 -71.981 -23.4904 0.407055 -6.63731 -91.1612 -43.5116 75.3742 -20.9297 2.29939 0.574224 8.85502 -10.5333 -132.707 33.7537 0.435567 -2.75043 -17.9867 5.18838 -6.11845 23.9591 7.41848 10.0149 
61.5329 96.7378 68.1457 69.7757 -37.2854 76.3062 -176.397 -2.8164 90.3999 -37.1107 23.0599 4.00565 40.3575 -10.4118 -5.74825 31.4438 1.27145 12.0028 174.872 55.1866 93.5205 -41.0518 -4.31803 0.64296 44.5723 4.39607 4.20491 24.1329 0.564553 -7.5831 -1.84165 7.87835 -89.8515 11.1325 -3.59677 0.643602 -0.533674 -3.56494 0.801463 -23.1087 -3.62368 -0.468589 -3.09608 -3.62368 -0.468579 89.4476 -48.1787 -102.118 38.4738 -18.3093 62.4874 -9.09929 -11.8094 -74.095 -23.43 0.531012 -7.29978 -90.3946 -44.0775 76.7444 -21.636 8.31908 1.46862 10.139 -13.6116 -133.644 33.0342 0.592232 -2.23114 -19.8869 5.4897 -5.60832 25.5258 7.85012 10.2243 
